<?xml version="1.0" encoding="iso-8859-1"?>
<!-- Uploaded to: SVG Repo, www.svgrepo.com, Generator: SVG Repo Mixer Tools -->
<svg fill="#000000" height="800px" width="800px" version="1.1" id="Capa_1" xmlns="http://www.w3.org/2000/svg" xmlns:xlink="http://www.w3.org/1999/xlink" 
	 viewBox="0 0 612.001 612.001" xml:space="preserve">
<g>
	<g>
		<g>
			<path d="M602.531,351.457l-107.026-178.88c-11.951-19.982-33.857-32.395-57.162-32.395c-11.993,0-23.795,3.268-34.13,9.451
				l-30.644,18.335c-6.804,0.895-30.29,1.999-67.567,1.999c-37.279,0-60.765-1.104-67.567-1.999l-30.645-18.337
				c-10.334-6.182-22.136-9.45-34.13-9.45c-23.309,0-45.211,12.413-57.167,32.394L9.47,351.457
				c-9.129,15.257-11.769,33.156-7.436,50.399s15.124,31.768,30.381,40.894l32.788,19.619c10.334,6.182,22.136,9.451,34.13,9.451
				c23.306,0,45.212-12.415,57.167-32.397l37.698-63.011h223.603l37.701,63.011c11.952,19.982,33.857,32.395,57.162,32.397h0.003
				c11.993,0,23.792-3.27,34.127-9.451l32.788-19.618c15.26-9.128,26.048-23.652,30.384-40.895
				C614.3,384.612,611.659,366.714,602.531,351.457z M576.948,393.559c-2.116,8.424-7.389,15.518-14.842,19.978l-32.791,19.619
				c-5.054,3.023-10.81,4.621-16.647,4.621c-11.572-0.001-22.022-5.919-27.95-15.832l-42.654-71.293
				c-3.075-5.136-8.622-8.283-14.609-8.283H184.546c-5.987,0-11.534,3.146-14.606,8.283l-42.654,71.295
				c-5.932,9.914-16.379,15.83-27.951,15.83c-5.84,0-11.598-1.599-16.65-4.621l-32.791-19.619
				c-7.453-4.46-12.722-11.554-14.842-19.978c-2.116-8.426-0.826-17.169,3.636-24.622L145.71,190.055
				c5.929-9.912,16.379-15.83,27.951-15.83c5.84,0,11.598,1.599,16.65,4.621l32.791,19.621c3.912,2.339,9.267,5.543,82.898,5.543
				c73.628,0,78.987-3.204,82.898-5.545l32.791-19.619c5.054-3.023,10.81-4.621,16.65-4.621c11.572,0,22.019,5.918,27.949,15.83
				l107.025,178.881C577.776,376.389,579.065,385.133,576.948,393.559z"/>
			<path d="M207.114,214.669c-31.698,0-57.487,25.788-57.487,57.484c0,31.699,25.791,57.487,57.487,57.487
				s57.484-25.79,57.484-57.487C264.6,240.457,238.812,214.669,207.114,214.669z M207.114,295.598
				c-12.927,0-23.443-10.517-23.443-23.443c0-12.925,10.517-23.441,23.443-23.441c12.927,0,23.441,10.515,23.441,23.441
				C230.556,285.081,220.041,295.598,207.114,295.598z"/>
			<path d="M404.885,214.669c-31.698,0-57.484,25.788-57.484,57.484c0,31.699,25.788,57.487,57.484,57.487
				c31.7,0,57.487-25.79,57.487-57.487C462.372,240.457,436.586,214.669,404.885,214.669z M404.885,295.598
				c-12.924,0-23.441-10.517-23.441-23.443c0-12.925,10.517-23.441,23.441-23.441c12.927,0,23.443,10.515,23.443,23.441
				C428.329,285.081,417.812,295.598,404.885,295.598z"/>
		</g>
	</g>
</g>
</svg>