<?xml version="1.0" encoding="UTF-8"?>
<svg version="1.1" xmlns="http://www.w3.org/2000/svg" width="200" height="200">
<path d="M0 0 C3.46679688 0.04882812 3.46679688 0.04882812 6.93359375 0.09765625 C7.26359375 5.70765625 7.59359375 11.31765625 7.93359375 17.09765625 C9.91359375 11.48765625 11.89359375 5.87765625 13.93359375 0.09765625 C17.23359375 0.09765625 20.53359375 0.09765625 23.93359375 0.09765625 C21.86476335 7.28961557 19.45442859 14.24857161 16.74609375 21.22265625 C16.37806641 22.17914063 16.01003906 23.135625 15.63085938 24.12109375 C14.7350472 26.44787863 13.83479129 28.7729519 12.93359375 31.09765625 C7.98359375 31.09765625 3.03359375 31.09765625 -2.06640625 31.09765625 C-2.23188447 26.8435931 -2.39427254 22.58965375 -2.54858398 18.33520508 C-2.60206862 16.88689324 -2.65740284 15.4386485 -2.71459961 13.99047852 C-2.79633137 11.91307043 -2.87148393 9.83551455 -2.9453125 7.7578125 C-2.99244385 6.50621338 -3.0395752 5.25461426 -3.08813477 3.96508789 C-3.05918409 0.14457392 -3.05918409 0.14457392 0 0 Z " fill="#F8FCFC" transform="translate(27.06640625,84.90234375)"/>
<path d="M0 0 C0.69287109 0.06123047 1.38574219 0.12246094 2.09960938 0.18554688 C3.79699822 0.33772656 5.49251549 0.51053935 7.1875 0.6875 C7.04673685 2.6462043 6.8997324 4.60446093 6.75 6.5625 C6.66878906 7.65304688 6.58757812 8.74359375 6.50390625 9.8671875 C6.1875 12.6875 6.1875 12.6875 5.1875 14.6875 C6.1775 14.6875 7.1675 14.6875 8.1875 14.6875 C8.1875 16.6675 8.1875 18.6475 8.1875 20.6875 C5.4830743 22.45577834 4.34470512 22.70636461 1.0625 22.3125 C-0.360625 22.003125 -0.360625 22.003125 -1.8125 21.6875 C-4.05680309 21.62680358 -4.05680309 21.62680358 -7.1875 22.3125 C-10.73592765 22.67957872 -11.99990418 22.74285848 -14.8125 20.6875 C-17.38253445 15.54743109 -15.50970299 9.89685736 -13.95703125 4.703125 C-10.77298091 -0.90428106 -5.75453501 -0.62226072 0 0 Z M-5.8125 7.6875 C-6.1425 9.9975 -6.4725 12.3075 -6.8125 14.6875 C-5.4925 14.3575 -4.1725 14.0275 -2.8125 13.6875 C-2.4825 11.7075 -2.1525 9.7275 -1.8125 7.6875 C-3.1325 7.6875 -4.4525 7.6875 -5.8125 7.6875 Z " fill="#F6FBFC" transform="translate(130.8125,94.3125)"/>
<path d="M0 0 C2.47667708 2.70886556 2.38230958 3.89082698 2.5 7.5 C2.27123983 12.05714343 1.80252984 15.45079354 -1 19.1875 C-5.33334393 22.14205268 -8.81081509 22.7535929 -14 22.1875 C-16.31279611 21.03110194 -18.17409828 20.01340172 -20 18.1875 C-20.40701944 12.38747295 -20.08946806 7.25889097 -17 2.1875 C-11.68914626 -1.76476325 -6.24456808 -1.69123719 0 0 Z M-10 7.1875 C-10.33 9.4975 -10.66 11.8075 -11 14.1875 C-9.68 13.8575 -8.36 13.5275 -7 13.1875 C-7 11.2075 -7 9.2275 -7 7.1875 C-7.99 7.1875 -8.98 7.1875 -10 7.1875 Z " fill="#F4F9FB" transform="translate(173,94.8125)"/>
<path d="M0 0 C1.5625 1.125 1.5625 1.125 2.5625 3.125 C3.28059965 8.79916441 2.66989098 13.53232483 -0.18359375 18.5234375 C-2.30743222 21.23612838 -4.06541321 21.67963005 -7.4375 22.125 C-15.15061493 22.07217045 -15.15061493 22.07217045 -18.18359375 19.83984375 C-20.54341372 16.61255102 -19.89375319 12.93978359 -19.4375 9.125 C-18.51563721 5.11489685 -17.16532042 2.64970774 -13.75 0.1875 C-9.01067519 -1.33266079 -4.80203048 -1.72380581 0 0 Z M-8.4375 6.125 C-10.78723818 8.02255144 -10.78723818 8.02255144 -10.5625 11.25 C-10.52125 12.19875 -10.48 13.1475 -10.4375 14.125 C-9.4475 14.125 -8.4575 14.125 -7.4375 14.125 C-7.1075 11.815 -6.7775 9.505 -6.4375 7.125 C-7.0975 6.795 -7.7575 6.465 -8.4375 6.125 Z " fill="#F5F9FB" transform="translate(66.4375,94.875)"/>
<path d="M0 0 C2.125 1.9375 2.125 1.9375 3 5.5 C3.125 8.9375 3.125 8.9375 2.125 10.9375 C-0.845 10.9375 -3.815 10.9375 -6.875 10.9375 C-6.545 9.6175 -6.215 8.2975 -5.875 6.9375 C-6.865 7.2675 -7.855 7.5975 -8.875 7.9375 C-9.205 9.5875 -9.535 11.2375 -9.875 12.9375 C-8.885 12.6075 -7.895 12.2775 -6.875 11.9375 C-5.48060336 11.87084624 -4.08330125 11.85211801 -2.6875 11.875 C-0.8003125 11.9059375 -0.8003125 11.9059375 1.125 11.9375 C0.64782158 17.30575726 0.64782158 17.30575726 -1.375 19.75 C-6.39134548 22.1327641 -11.07719085 22.48326349 -16.375 20.875 C-18.875 18.9375 -18.875 18.9375 -19.9375 16.375 C-19.85135804 11.63719213 -18.92161424 7.23021795 -16.875 2.9375 C-11.93365511 -1.52274032 -6.24210211 -2.30686382 0 0 Z " fill="#F4F9FC" transform="translate(111.875,95.0625)"/>
<path d="M0 0 C1.5625 1.125 1.5625 1.125 2.5625 3.125 C2.6875 6.6875 2.6875 6.6875 2.5625 10.125 C1.5625 11.125 1.5625 11.125 -0.28515625 11.22265625 C-2.3359375 11.19010417 -4.38671875 11.15755208 -6.4375 11.125 C-6.4375 9.805 -6.4375 8.485 -6.4375 7.125 C-7.4275 7.125 -8.4175 7.125 -9.4375 7.125 C-9.7675 9.435 -10.0975 11.745 -10.4375 14.125 C-9.921875 13.795 -9.40625 13.465 -8.875 13.125 C-5.65723488 11.80489123 -2.8804472 11.99257895 0.5625 12.125 C0.8925 12.785 1.2225 13.445 1.5625 14.125 C0.15972046 17.34314129 -1.19754966 18.9536069 -4.0625 21 C-8.35975029 22.43241676 -12.0849566 22.4349083 -16.4375 21.125 C-18.55668587 19.56050037 -19.32236253 18.70746012 -19.8359375 16.109375 C-19.77923928 10.70414463 -19.24550594 6.80500989 -16.4375 2.125 C-11.43138344 -1.48406078 -5.83723607 -2.09541808 0 0 Z " fill="#F5FAFC" transform="translate(89.4375,94.875)"/>
<path d="M0 0 C2.64 0 5.28 0 8 0 C9.36264859 2.72529718 8.76376333 4.24227497 8.22265625 7.2265625 C7.94711914 8.7734375 7.94711914 8.7734375 7.66601562 10.3515625 C7.46685547 11.43179688 7.26769531 12.51203125 7.0625 13.625 C6.86720703 14.71296875 6.67191406 15.8009375 6.47070312 16.921875 C5.98628878 19.61569136 5.49581315 22.30826233 5 25 C5.66 25.33 6.32 25.66 7 26 C7 27.98 7 29.96 7 32 C4.36609075 33.72217143 3.07588583 34.00455315 -0.125 33.8125 C-3 33 -3 33 -5 30 C-5.16022246 23.12079673 -3.34215267 16.07563993 -1.9375 9.375 C-1.75123047 8.46621094 -1.56496094 7.55742188 -1.37304688 6.62109375 C-0.91982704 4.4130997 -0.46210307 2.20614876 0 0 Z " fill="#F4F9FB" transform="translate(145,83)"/>
<path d="M0 0 C2.31 0 4.62 0 7 0 C7 0.99 7 1.98 7 3 C4.36 2.67 1.72 2.34 -1 2 C-0.67 1.34 -0.34 0.68 0 0 Z " fill="#E5F1F9" transform="translate(83,107)"/>
</svg>
