<?xml version="1.0" encoding="UTF-8"?>
<svg xmlns="http://www.w3.org/2000/svg" xmlns:xlink="http://www.w3.org/1999/xlink" width="1000px" height="1000px" viewBox="0 0 1000 1000" version="1.1">
<g id="surface1">
<path style=" stroke:none;fill-rule:nonzero;fill:rgb(97.254902%,98.823529%,98.823529%);fill-opacity:1;" d="M 135.332031 424.511719 C 152.667969 424.753906 152.667969 424.753906 170 425 C 171.648438 453.050781 173.300781 481.101562 175 510 C 184.898438 481.949219 194.800781 453.898438 205 425 C 221.5 425 238 425 255 425 C 244.65625 460.960938 232.605469 495.753906 219.0625 530.625 C 217.222656 535.40625 215.382812 540.191406 213.488281 545.117188 C 209.007812 556.75 204.507812 568.375 200 580 C 175.25 580 150.5 580 125 580 C 124.171875 558.730469 123.359375 537.460938 122.589844 516.1875 C 122.320312 508.945312 122.046875 501.703125 121.757812 494.464844 C 121.351562 484.078125 120.976562 473.6875 120.605469 463.300781 C 120.371094 457.042969 120.132812 450.785156 119.890625 444.335938 C 120.035156 425.234375 120.035156 425.234375 135.332031 424.511719 Z M 135.332031 424.511719 "/>
<path style=" stroke:none;fill-rule:nonzero;fill:rgb(96.470588%,98.431373%,98.823529%);fill-opacity:1;" d="M 654.0625 471.5625 C 657.527344 471.867188 660.992188 472.175781 664.5625 472.492188 C 673.046875 473.25 681.523438 474.113281 690 475 C 689.296875 484.792969 688.5625 494.585938 687.8125 504.375 C 687.40625 509.828125 687 515.28125 686.582031 520.898438 C 685 535 685 535 680 545 C 684.949219 545 689.898438 545 695 545 C 695 554.898438 695 564.800781 695 575 C 681.476562 583.839844 675.785156 585.09375 659.375 583.125 C 652.257812 581.578125 652.257812 581.578125 645 580 C 633.777344 579.695312 633.777344 579.695312 618.125 583.125 C 600.382812 584.960938 594.0625 585.277344 580 575 C 567.148438 549.300781 576.515625 521.046875 584.277344 495.078125 C 600.199219 467.042969 625.289062 468.453125 654.0625 471.5625 Z M 625 510 C 623.351562 521.550781 621.699219 533.101562 620 545 C 626.601562 543.351562 633.199219 541.699219 640 540 C 641.648438 530.101562 643.300781 520.199219 645 510 C 638.398438 510 631.800781 510 625 510 Z M 625 510 "/>
<path style=" stroke:none;fill-rule:nonzero;fill:rgb(95.686275%,97.647059%,98.431373%);fill-opacity:1;" d="M 865 474.0625 C 877.382812 487.605469 876.910156 493.515625 877.5 511.5625 C 876.355469 534.347656 874.011719 551.316406 860 570 C 838.332031 584.773438 820.945312 587.832031 795 585 C 783.4375 579.21875 774.128906 574.128906 765 565 C 762.964844 536 764.550781 510.355469 780 485 C 806.554688 465.238281 833.777344 465.605469 865 474.0625 Z M 815 510 C 813.351562 521.550781 811.699219 533.101562 810 545 C 816.601562 543.351562 823.199219 541.699219 830 540 C 830 530.101562 830 520.199219 830 510 C 825.050781 510 820.101562 510 815 510 Z M 815 510 "/>
<path style=" stroke:none;fill-rule:nonzero;fill:rgb(96.078432%,97.647059%,98.431373%);fill-opacity:1;" d="M 332.1875 474.375 C 340 480 340 480 345 490 C 348.589844 518.371094 345.535156 542.035156 331.269531 566.992188 C 320.648438 580.554688 311.859375 582.773438 295 585 C 256.433594 584.734375 256.433594 584.734375 241.269531 573.574219 C 229.46875 557.4375 232.71875 539.074219 235 520 C 239.609375 499.949219 246.359375 487.625 263.4375 475.3125 C 287.132812 467.710938 308.175781 465.757812 332.1875 474.375 Z M 290 505 C 278.25 514.488281 278.25 514.488281 279.375 530.625 C 279.582031 535.367188 279.789062 540.113281 280 545 C 284.949219 545 289.898438 545 295 545 C 296.648438 533.449219 298.300781 521.898438 300 510 C 296.699219 508.351562 293.398438 506.699219 290 505 Z M 290 505 "/>
<path style=" stroke:none;fill-rule:nonzero;fill:rgb(95.686275%,97.647059%,98.823529%);fill-opacity:1;" d="M 559.375 475.3125 C 570 485 570 485 574.375 502.8125 C 575 520 575 520 570 530 C 555.148438 530 540.300781 530 525 530 C 526.648438 523.398438 528.300781 516.800781 530 510 C 525.050781 511.648438 520.101562 513.300781 515 515 C 513.351562 523.25 511.699219 531.5 510 540 C 514.949219 538.351562 519.898438 536.699219 525 535 C 531.972656 534.667969 538.957031 534.574219 545.9375 534.6875 C 555.375 534.84375 555.375 534.84375 565 535 C 562.613281 561.839844 562.613281 561.839844 552.5 574.0625 C 527.417969 585.976562 503.988281 587.730469 477.5 579.6875 C 465 570 465 570 459.6875 557.1875 C 460.117188 533.5 464.765625 511.464844 475 490 C 499.707031 467.699219 528.164062 463.777344 559.375 475.3125 Z M 559.375 475.3125 "/>
<path style=" stroke:none;fill-rule:nonzero;fill:rgb(96.078432%,98.039216%,98.823529%);fill-opacity:1;" d="M 447.1875 474.375 C 455 480 455 480 460 490 C 460.625 507.8125 460.625 507.8125 460 525 C 455 530 455 530 445.761719 530.488281 C 435.507812 530.324219 425.253906 530.164062 415 530 C 415 523.398438 415 516.800781 415 510 C 410.050781 510 405.101562 510 400 510 C 398.351562 521.550781 396.699219 533.101562 395 545 C 397.578125 543.351562 400.15625 541.699219 402.8125 540 C 418.902344 533.398438 432.785156 534.339844 450 535 C 451.648438 538.300781 453.300781 541.601562 455 545 C 447.984375 561.089844 441.199219 569.144531 426.875 579.375 C 405.390625 586.535156 386.761719 586.550781 365 580 C 354.402344 572.175781 350.574219 567.914062 348.007812 554.921875 C 348.292969 527.894531 350.960938 508.398438 365 485 C 390.03125 466.953125 418 463.898438 447.1875 474.375 Z M 447.1875 474.375 "/>
<path style=" stroke:none;fill-rule:nonzero;fill:rgb(95.686275%,97.647059%,98.431373%);fill-opacity:1;" d="M 725 415 C 738.199219 415 751.398438 415 765 415 C 771.8125 428.625 768.820312 436.210938 766.113281 451.132812 C 764.734375 458.867188 764.734375 458.867188 763.328125 466.757812 C 762.335938 472.160156 761.339844 477.558594 760.3125 483.125 C 759.335938 488.566406 758.359375 494.003906 757.351562 499.609375 C 754.929688 513.078125 752.480469 526.542969 750 540 C 753.300781 541.648438 756.601562 543.300781 760 545 C 760 554.898438 760 564.800781 760 575 C 746.832031 583.609375 740.378906 585.023438 724.375 584.0625 C 710 580 710 580 700 565 C 699.199219 530.605469 708.289062 495.378906 715.3125 461.875 C 716.242188 457.332031 717.175781 452.789062 718.132812 448.105469 C 720.402344 437.066406 722.691406 426.03125 725 415 Z M 725 415 "/>
<path style=" stroke:none;fill-rule:nonzero;fill:rgb(89.803922%,94.509804%,97.647059%);fill-opacity:1;" d="M 415 535 C 426.550781 535 438.101562 535 450 535 C 450 539.949219 450 544.898438 450 550 C 436.800781 548.351562 423.601562 546.699219 410 545 C 411.648438 541.699219 413.300781 538.398438 415 535 Z M 415 535 "/>
</g>
</svg>
